<svg width="20" height="18" viewBox="0 0 20 18" fill="none" xmlns="http://www.w3.org/2000/svg">
<path d="M17.5 2.4375H14.8009L13.4688 0.437813C13.4173 0.360692 13.3476 0.297485 13.2658 0.253814C13.184 0.210143 13.0927 0.187363 13 0.187501H7C6.90729 0.187363 6.81598 0.210143 6.7342 0.253814C6.65242 0.297485 6.5827 0.360692 6.53125 0.437813L5.19812 2.4375H2.5C1.95299 2.4375 1.42839 2.6548 1.04159 3.04159C0.654798 3.42839 0.4375 3.95299 0.4375 4.5V15C0.4375 15.547 0.654798 16.0716 1.04159 16.4584C1.42839 16.8452 1.95299 17.0625 2.5 17.0625H17.5C18.047 17.0625 18.5716 16.8452 18.9584 16.4584C19.3452 16.0716 19.5625 15.547 19.5625 15V4.5C19.5625 3.95299 19.3452 3.42839 18.9584 3.04159C18.5716 2.6548 18.047 2.4375 17.5 2.4375ZM18.4375 15C18.4375 15.2486 18.3387 15.4871 18.1629 15.6629C17.9871 15.8387 17.7486 15.9375 17.5 15.9375H2.5C2.25136 15.9375 2.0129 15.8387 1.83709 15.6629C1.66127 15.4871 1.5625 15.2486 1.5625 15V4.5C1.5625 4.25136 1.66127 4.0129 1.83709 3.83709C2.0129 3.66127 2.25136 3.5625 2.5 3.5625H5.5C5.59271 3.56264 5.68402 3.53986 5.7658 3.49619C5.84758 3.45252 5.9173 3.38931 5.96875 3.31219L7.30094 1.3125H12.6981L14.0312 3.31219C14.0827 3.38931 14.1524 3.45252 14.2342 3.49619C14.316 3.53986 14.4073 3.56264 14.5 3.5625H17.5C17.7486 3.5625 17.9871 3.66127 18.1629 3.83709C18.3387 4.0129 18.4375 4.25136 18.4375 4.5V15ZM10 5.4375C9.22124 5.4375 8.45996 5.66843 7.81244 6.10109C7.16492 6.53375 6.66024 7.1487 6.36222 7.86819C6.0642 8.58767 5.98623 9.37937 6.13816 10.1432C6.29009 10.907 6.6651 11.6086 7.21577 12.1592C7.76644 12.7099 8.46803 13.0849 9.23183 13.2368C9.99563 13.3888 10.7873 13.3108 11.5068 13.0128C12.2263 12.7148 12.8413 12.2101 13.2739 11.5626C13.7066 10.915 13.9375 10.1538 13.9375 9.375C13.9375 8.33071 13.5227 7.32919 12.7842 6.59077C12.0458 5.85234 11.0443 5.4375 10 5.4375ZM10 12.1875C9.44374 12.1875 8.89997 12.0226 8.43746 11.7135C7.97495 11.4045 7.61446 10.9652 7.40159 10.4513C7.18872 9.93738 7.13302 9.37188 7.24154 8.82631C7.35006 8.28074 7.61793 7.7796 8.01126 7.38626C8.4046 6.99293 8.90574 6.72506 9.45131 6.61654C9.99688 6.50802 10.5624 6.56372 11.0763 6.77659C11.5902 6.98946 12.0295 7.34995 12.3385 7.81246C12.6475 8.27497 12.8125 8.81874 12.8125 9.375C12.8125 10.1209 12.5162 10.8363 11.9887 11.3637C11.4613 11.8912 10.7459 12.1875 10 12.1875Z" fill="#0277FA" fill-opacity="0.65"/>
</svg>
