<svg id="dr_address" xmlns="http://www.w3.org/2000/svg" xmlns:xlink="http://www.w3.org/1999/xlink" width="24" height="24" viewBox="0 0 24 24">
  <defs>
    <clipPath id="clip-path">
      <rect id="Rectangle_1639" data-name="Rectangle 1639" width="24" height="24" fill="none"/>
    </clipPath>
  </defs>
  <g id="Group_2815" data-name="Group 2815" clip-path="url(#clip-path)">
    <g id="Mask_Group_156" data-name="Mask Group 156">
      <g id="Layer_1-2" data-name="Layer 1-2">
        <g id="Address">
          <g id="Path_13967" data-name="Path 13967">
            <path id="Path_13997" data-name="Path 13997" d="M12.01,23.63a.763.763,0,0,1-.51-.2l-.59-.55a18.747,18.747,0,0,1-1.7-1.75,8.65,8.65,0,0,1-2.45-4.76v-.68a5.269,5.269,0,0,1,5.25-5.19h0a5.285,5.285,0,0,1,5.26,5.35v.26c0,2.72-2.91,5.65-4.16,6.78l-.6.55a.744.744,0,0,1-.51.2ZM8.25,16.19a7.23,7.23,0,0,0,2.06,3.93,19.774,19.774,0,0,0,1.61,1.67l.09.08.09-.08c1.77-1.6,3.66-3.93,3.66-5.66v-.27a3.776,3.776,0,0,0-3.7-3.85h0a3.768,3.768,0,0,0-3.81,3.7v.49Zm10.83,7.29h0a.75.75,0,0,1,0-1.5h0a1.272,1.272,0,0,0,1.27-1.27V9.37L12.01,2.11,3.67,9.36V20.71a1.272,1.272,0,0,0,1.27,1.27H6.46a.75.75,0,0,1,0,1.5H4.94a2.77,2.77,0,0,1-2.77-2.77v-9.8l-.71.62a.74.74,0,0,1-1.04-.06L.3,11.34a.752.752,0,0,1-.2-.55.712.712,0,0,1,.26-.52L11.51.55a.745.745,0,0,1,.98,0l11.16,9.71a.744.744,0,0,1,.08,1.05l-.11.13a.8.8,0,0,1-.52.27.736.736,0,0,1-.55-.18l-.71-.62v9.8a2.776,2.776,0,0,1-2.77,2.77ZM12,17.12a1.314,1.314,0,0,1-1.31-1.3,1.322,1.322,0,0,1,1.24-1.34h.08a1.319,1.319,0,0,1,1.32,1.29v.03a1.314,1.314,0,0,1-1.3,1.31H12Zm0-1.28v.15h0Z" fill="#2560fc"/>
          </g>
        </g>
      </g>
    </g>
  </g>
</svg>
