<svg id="dr_become_provider" xmlns="http://www.w3.org/2000/svg" xmlns:xlink="http://www.w3.org/1999/xlink" width="24" height="24" viewBox="0 0 24 24">
  <defs>
    <clipPath id="clip-path">
      <rect id="Rectangle_1640" data-name="Rectangle 1640" width="24" height="24" fill="none"/>
    </clipPath>
  </defs>
  <g id="Group_2816" data-name="Group 2816" clip-path="url(#clip-path)">
    <g id="Mask_Group_157" data-name="Mask Group 157">
      <g id="Layer_1-3" data-name="Layer 1-3">
        <g id="Became_Provider" data-name="Became Provider">
          <g id="Path_13991" data-name="Path 13991">
            <path id="Path_13998" data-name="Path 13998" d="M12.49,23.91a.755.755,0,0,1-.75-.75v-5.7a.75.75,0,0,1,1.5,0v5.7A.755.755,0,0,1,12.49,23.91Z" fill="#2560fc"/>
          </g>
          <g id="Path_13992" data-name="Path 13992">
            <path id="Path_13999" data-name="Path 13999" d="M9.64,21.08a.75.75,0,0,1,0-1.5l5.7-.02h0a.75.75,0,1,1,0,1.5l-5.7.02Z" fill="#2560fc"/>
          </g>
          <g id="Path_13993" data-name="Path 13993">
            <path id="Path_14000" data-name="Path 14000" d="M2.94,21.86a2.047,2.047,0,0,1-1.62-.78,1.837,1.837,0,0,1-.38-1.59,10.51,10.51,0,0,1,.63-1.97c1.6-3.81,5.7-6.28,10.44-6.28s8.81,2.4,10.42,6.26l.07.17a11.785,11.785,0,0,1,.58,1.8,1.946,1.946,0,0,1-.38,1.59,2.066,2.066,0,0,1-1.63.78H18.98a.75.75,0,0,1,0-1.5h2.08a.639.639,0,0,0,.48-.22.378.378,0,0,0,.08-.34,11.305,11.305,0,0,0-.49-1.53l-.07-.16c-1.38-3.3-4.84-5.35-9.04-5.35s-7.69,2.11-9.06,5.37a9.464,9.464,0,0,0-.55,1.71.323.323,0,0,0,.07.3.61.61,0,0,0,.48.24H5.04a.75.75,0,0,1,0,1.5H2.95Z" fill="#2560fc"/>
          </g>
          <g id="Path_13994" data-name="Path 13994">
            <path id="Path_14001" data-name="Path 14001" d="M11.99,12.81A6.427,6.427,0,0,1,5.57,6.39a.389.389,0,0,1,.02-.15A6.374,6.374,0,0,1,7.57,1.88,6.327,6.327,0,0,1,12.15.1a6.407,6.407,0,0,1,6.27,6.27A6.432,6.432,0,0,1,12,12.81ZM7.07,6.51a4.921,4.921,0,0,0,9.84-.12,4.916,4.916,0,0,0-9.83.01v.1Zm-.74-.12Z" fill="#2560fc"/>
          </g>
        </g>
      </g>
    </g>
  </g>
</svg>
