<svg id="dr_contact_us" xmlns="http://www.w3.org/2000/svg" xmlns:xlink="http://www.w3.org/1999/xlink" width="24" height="24" viewBox="0 0 24 24">
  <defs>
    <clipPath id="clip-path">
      <rect id="Rectangle_1641" data-name="Rectangle 1641" width="24" height="24" fill="none"/>
    </clipPath>
  </defs>
  <g id="Group_2817" data-name="Group 2817" clip-path="url(#clip-path)">
    <g id="Mask_Group_159" data-name="Mask Group 159">
      <g id="Layer_1-5" data-name="Layer 1-5">
        <g id="Contact_Us" data-name="Contact Us">
          <g id="Path_12147" data-name="Path 12147">
            <path id="Path_14002" data-name="Path 14002" d="M22.67,11.75a.755.755,0,0,1-.75-.75v-.9A8.336,8.336,0,0,0,13.8,1.58H12.78a.755.755,0,0,1-.75-.75.755.755,0,0,1,.75-.75h1.03a9.837,9.837,0,0,1,9.6,10.03v.88a.755.755,0,0,1-.75.75Z" fill="#2560fc"/>
          </g>
          <g id="Path_12148" data-name="Path 12148">
            <path id="Path_14003" data-name="Path 14003" d="M17.85,11.75A.755.755,0,0,1,17.1,11v-.48a4.009,4.009,0,0,0-3.81-4.18h-.5a.75.75,0,0,1,0-1.5h.53a5.517,5.517,0,0,1,5.28,5.71V11a.755.755,0,0,1-.75.75Z" fill="#2560fc"/>
          </g>
          <g id="Path_12149" data-name="Path 12149">
            <path id="Path_14004" data-name="Path 14004" d="M16.48,23.86a4.027,4.027,0,0,1-1.22-.19C9.23,21.57,4.52,17.1,1.23,10.38l-.18-.37a4.5,4.5,0,0,1,.97-5.08,3.4,3.4,0,0,1,4.67.13c1.32,1.19,2.9,3.99,2.59,4.99a4.822,4.822,0,0,1-1.55,1.72.75.75,0,1,1-.9-1.2,6.323,6.323,0,0,0,1-.93A8.748,8.748,0,0,0,5.67,6.15a1.911,1.911,0,0,0-2.62-.12,2.977,2.977,0,0,0-.63,3.33l.18.35c3.11,6.36,7.54,10.57,13.16,12.53a2.477,2.477,0,0,0,2.79-.97c1.03-1.6.75-1.91-.56-2.95l-.23-.18c-1.57-1.25-2.38-1.77-3.19-1.33l-.55.67a.748.748,0,0,1-1.06.1.757.757,0,0,1-.1-1.06l.63-.77a.934.934,0,0,1,.18-.16c1.84-1.15,3.53.19,5.02,1.37l.22.18c1.79,1.41,2.41,2.56.88,4.96a4.011,4.011,0,0,1-3.29,1.75Z" fill="#2560fc"/>
          </g>
        </g>
      </g>
    </g>
  </g>
</svg>
