<svg xmlns="http://www.w3.org/2000/svg" width="24.169" height="23.021" viewBox="0 0 24.169 23.021">
  <g id="dr_chat" transform="translate(0.001 -0.464)">
    <path id="Path_14055" data-name="Path 14055" d="M16.557,13.335h0l-9.062-.05a.749.749,0,0,1-.746-.749v-.005a.749.749,0,0,1,.75-.746h0l9.062.05a.749.749,0,0,1,.746.749v.005a.749.749,0,0,1-.75.746" fill="#2560fc"/>
    <path id="Path_14056" data-name="Path 14056" d="M14.557,8.975h-.009l-4.062-.05a.751.751,0,0,1-.741-.75v-.01a.749.749,0,0,1,.75-.74H10.5l4.062.05a.75.75,0,0,1,.741.75v.009a.75.75,0,0,1-.75.741" fill="#2560fc"/>
    <path id="Path_14057" data-name="Path 14057" d="M8.037,23.485a2.05,2.05,0,0,1-1.906-2.812.452.452,0,0,0-.041-.413.42.42,0,0,0-.345-.175H5.061A5.075,5.075,0,0,1,0,15.038v-4.8C0,8.7,0,7.486.075,6.516A6.415,6.415,0,0,1,.683,4,6.408,6.408,0,0,1,3.519,1.159,6.687,6.687,0,0,1,6.08.537C7.022.464,8.233.464,9.767.464h4.589c1.535,0,2.745,0,3.715.074a6.435,6.435,0,0,1,2.518.612,6.429,6.429,0,0,1,2.843,2.832,6.707,6.707,0,0,1,.61,2.388.8.8,0,0,1,.024.138c.074.97.074,2.181.074,3.714v1.554a13.845,13.845,0,0,1-.25,3.616,6.392,6.392,0,0,1-4.383,4.428,14.116,14.116,0,0,1-3.733.264h-.812A4.811,4.811,0,0,0,12.174,21L9.228,23.1a2.039,2.039,0,0,1-1.191.384m-2.289-4.9a1.923,1.923,0,0,1,1.592.845,1.962,1.962,0,0,1,.184,1.8.55.55,0,0,0,.831.652l2.944-2.1a6.313,6.313,0,0,1,3.658-1.2h.866a12.625,12.625,0,0,0,3.327-.22,4.867,4.867,0,0,0,3.285-3.331,12.511,12.511,0,0,0,.206-3.21v-1.6c0-1.418,0-2.555-.059-3.446a.712.712,0,0,1-.029-.173,5.163,5.163,0,0,0-.472-1.97A4.871,4.871,0,0,0,19.934,2.5a4.986,4.986,0,0,0-1.946-.463c-.944-.072-2.13-.072-3.632-.072H9.767c-1.5,0-2.688,0-3.6.07a5.228,5.228,0,0,0-2,.476A4.872,4.872,0,0,0,2.032,4.657,4.987,4.987,0,0,0,1.571,6.6C1.5,7.544,1.5,8.731,1.5,10.235v4.8a3.571,3.571,0,0,0,3.563,3.55h.686Z" fill="#2560fc"/>
  </g>
</svg>
