<svg id="dr_favorite" xmlns="http://www.w3.org/2000/svg" xmlns:xlink="http://www.w3.org/1999/xlink" width="24" height="24" viewBox="0 0 24 24">
  <defs>
    <clipPath id="clip-path">
      <rect id="Rectangle_1643" data-name="Rectangle 1643" width="24" height="24" fill="none"/>
    </clipPath>
  </defs>
  <g id="Group_2819" data-name="Group 2819" clip-path="url(#clip-path)">
    <g id="Mask_Group_158" data-name="Mask Group 158">
      <g id="Layer_1-4" data-name="Layer 1-4">
        <g id="Bookmarks">
          <g id="Path_13965" data-name="Path 13965">
            <path id="Path_14008" data-name="Path 14008" d="M11.98,22.66a.749.749,0,0,1-.53-.22L2.09,13.08A6.852,6.852,0,0,1,6.93,1.38h.01a6.845,6.845,0,0,1,4.83,2.01.284.284,0,0,0,.4,0l.08-.08a6.831,6.831,0,0,1,4.8-1.97h.06a6.85,6.85,0,0,1,4.74,11.74L12.5,22.43a.749.749,0,0,1-.53.22ZM6.93,2.88a5.353,5.353,0,0,0-3.78,9.14l8.83,8.83,8.83-8.83a5.366,5.366,0,0,0,.07-7.58,5.3,5.3,0,0,0-3.77-1.6,5.229,5.229,0,0,0-3.8,1.53l-.07.07a1.793,1.793,0,0,1-2.52,0A5.329,5.329,0,0,0,6.95,2.87H6.94Z" fill="#2560fc"/>
          </g>
        </g>
      </g>
    </g>
  </g>
</svg>
