<svg id="dr_help" xmlns="http://www.w3.org/2000/svg" xmlns:xlink="http://www.w3.org/1999/xlink" width="24" height="24" viewBox="0 0 24 24">
  <defs>
    <clipPath id="clip-path">
      <rect id="Rectangle_1644" data-name="Rectangle 1644" width="24" height="24" fill="none"/>
    </clipPath>
  </defs>
  <g id="Group_2820" data-name="Group 2820" clip-path="url(#clip-path)">
    <g id="Mask_Group_162" data-name="Mask Group 162">
      <g id="Layer_1-8" data-name="Layer 1-8">
        <g id="Help">
          <g id="Path_13982" data-name="Path 13982">
            <path id="Path_14009" data-name="Path 14009" d="M19.45,14.14a.774.774,0,0,1-.59-.28l-.27-.33a3.61,3.61,0,0,1-1.44.3,3.444,3.444,0,0,1-2.51-1.03,3.881,3.881,0,0,1-.5-.65,3.529,3.529,0,0,1,1.23-4.83,2.969,2.969,0,0,1,1.71-.47,3.385,3.385,0,0,1,2.46,1.02,3.548,3.548,0,0,1,.36,4.54.583.583,0,0,1-.11.15l.24.36a.745.745,0,0,1-.59,1.21ZM17.09,8.35a1.8,1.8,0,0,0-.94.26,2.017,2.017,0,0,0-.72,2.77,1.819,1.819,0,0,0,.29.38,1.908,1.908,0,0,0,1.41.57,1.84,1.84,0,0,0,.81-.17,1.559,1.559,0,0,1,.45-.14,1.722,1.722,0,0,1,.22-.37c.01-.02.02-.03.03-.05a2.066,2.066,0,0,0-.17-2.68,1.98,1.98,0,0,0-1.37-.57h0Zm2.16,3.71Z" fill="#2560fc"/>
          </g>
          <g id="Path_13983" data-name="Path 13983">
            <path id="Path_14010" data-name="Path 14010" d="M12.48,13.6a.743.743,0,0,1-.7-.48l-.32-.84H9.12l-.32.84a.75.75,0,1,1-1.4-.54L9.28,7.71a1.09,1.09,0,0,1,2.04.01l1.86,4.87a.754.754,0,0,1-.43.97.857.857,0,0,1-.27.05ZM9.69,10.78h1.19l-.59-1.55-.6,1.55Zm.98-2.54Zm-.75.01Z" fill="#2560fc"/>
          </g>
          <g id="Line_145" data-name="Line 145">
            <path id="Path_14011" data-name="Path 14011" d="M6.18,10.8H4.2a.75.75,0,1,1,0-1.5H6.18a.75.75,0,0,1,0,1.5Z" fill="#2560fc"/>
          </g>
          <g id="Path_13984" data-name="Path 13984">
            <path id="Path_14012" data-name="Path 14012" d="M4.2,13.61a.755.755,0,0,1-.75-.75V7.77a.755.755,0,0,1,.75-.75H6.18a.75.75,0,1,1,0,1.5H4.95v4.34A.755.755,0,0,1,4.2,13.61Z" fill="#2560fc"/>
          </g>
          <g id="Path_13985" data-name="Path 13985">
            <path id="Path_14013" data-name="Path 14013" d="M21.33,18.32H2.67A2.586,2.586,0,0,1,.09,15.74V5.26A2.586,2.586,0,0,1,2.67,2.68H21.34a2.586,2.586,0,0,1,2.58,2.58V15.74a2.586,2.586,0,0,1-2.58,2.58ZM2.67,4.18A1.082,1.082,0,0,0,1.59,5.26V15.74a1.088,1.088,0,0,0,1.08,1.08H21.33a1.082,1.082,0,0,0,1.08-1.08V5.26a1.082,1.082,0,0,0-1.08-1.08H2.67Z" fill="#2560fc"/>
          </g>
          <g id="Path_13986" data-name="Path 13986">
            <path id="Path_14014" data-name="Path 14014" d="M13.31,4.14H10.7a.755.755,0,0,1-.75-.75V2.14A2.025,2.025,0,0,1,10.56.68,2.121,2.121,0,0,1,12.01.09h.01a2.046,2.046,0,0,1,2.04,2.06V3.4a.755.755,0,0,1-.75.75Zm-1.87-1.5h1.11v-.5A.557.557,0,0,0,12,1.58h-.01a.629.629,0,0,0-.39.16.552.552,0,0,0-.16.39v.51Z" fill="#2560fc"/>
          </g>
          <g id="Path_13987" data-name="Path 13987">
            <path id="Path_14015" data-name="Path 14015" d="M11.51,23.91h0a1.568,1.568,0,0,1-1.56-1.56V17.59a.755.755,0,0,1,.75-.75h2.61a.755.755,0,0,1,.75.75v4.76a1.568,1.568,0,0,1-1.56,1.56Zm-.07-5.57v4.01l.06.81v-.75h.98l.05-4.07h-1.1Z" fill="#2560fc"/>
          </g>
          <g id="Line_146" data-name="Line 146">
            <path id="Path_14016" data-name="Path 14016" d="M18.88,13.45a.781.781,0,0,1-.55-.23l-.96-1.02a.75.75,0,0,1,1.09-1.03l.96,1.02a.755.755,0,0,1-.03,1.06.74.74,0,0,1-.52.2Z" fill="#2560fc"/>
          </g>
        </g>
      </g>
    </g>
  </g>
</svg>
