<svg id="dr_language" xmlns="http://www.w3.org/2000/svg" xmlns:xlink="http://www.w3.org/1999/xlink" width="24" height="24" viewBox="0 0 24 24">
  <defs>
    <clipPath id="clip-path">
      <rect id="Rectangle_1645" data-name="Rectangle 1645" width="24" height="24" fill="none"/>
    </clipPath>
  </defs>
  <g id="Group_2821" data-name="Group 2821" clip-path="url(#clip-path)">
    <g id="Mask_Group_163" data-name="Mask Group 163">
      <g id="Layer_1-9" data-name="Layer 1-9">
        <g id="Language">
          <g id="Ellipse_48" data-name="Ellipse 48">
            <path id="Path_14017" data-name="Path 14017" d="M17.31,13.29a6.6,6.6,0,1,1,6.6-6.6A6.607,6.607,0,0,1,17.31,13.29Zm0-11.7a5.1,5.1,0,1,0,5.1,5.1,5.109,5.109,0,0,0-5.1-5.1Z" fill="#2560fc"/>
          </g>
          <g id="Ellipse_49" data-name="Ellipse 49">
            <path id="Path_14018" data-name="Path 14018" d="M6.69,23.91a6.6,6.6,0,1,1,6.6-6.6A6.607,6.607,0,0,1,6.69,23.91Zm0-11.7a5.1,5.1,0,1,0,5.1,5.1,5.109,5.109,0,0,0-5.1-5.1Z" fill="#2560fc"/>
          </g>
          <g id="Path_12150" data-name="Path 12150">
            <path id="Path_14019" data-name="Path 14019" d="M1.94,8.85a.746.746,0,0,1-.74-.66A4.479,4.479,0,0,1,2.34,4.77C3.42,3.66,5.13,3.22,7.42,3.45a.749.749,0,1,1-.15,1.49c-1.81-.18-3.1.11-3.85.88A2.978,2.978,0,0,0,2.69,8a.753.753,0,0,1-.65.84H1.95Z" fill="#2560fc"/>
          </g>
          <g id="Path_12151" data-name="Path 12151">
            <path id="Path_14020" data-name="Path 14020" d="M6.1,6.87a.745.745,0,0,1-.51-1.29L7.1,4.15,5.15,2.33a.75.75,0,0,1,1.02-1.1L8.7,3.6a.761.761,0,0,1,.01,1.1L6.62,6.68a.751.751,0,0,1-.52.21Z" fill="#2560fc"/>
          </g>
          <g id="Path_12152" data-name="Path 12152">
            <path id="Path_14021" data-name="Path 14021" d="M17.67,21.18a10.9,10.9,0,0,1-1.11-.06.749.749,0,0,1,.15-1.49c1.81.18,3.1-.12,3.85-.88a2.987,2.987,0,0,0,.73-2.18.751.751,0,1,1,1.49-.19,4.479,4.479,0,0,1-1.14,3.42,5.326,5.326,0,0,1-3.97,1.39Z" fill="#2560fc"/>
          </g>
          <g id="Path_12153" data-name="Path 12153">
            <path id="Path_14022" data-name="Path 14022" d="M18.32,23.53a.763.763,0,0,1-.51-.2l-2.52-2.37a.751.751,0,0,1-.24-.54.781.781,0,0,1,.23-.55l2.09-1.98a.75.75,0,0,1,1.03,1.09l-1.51,1.43,1.94,1.82a.755.755,0,0,1-.52,1.3Z" fill="#2560fc"/>
          </g>
          <g id="Line_45" data-name="Line 45">
            <path id="Path_14023" data-name="Path 14023" d="M18.73,10.03a.755.755,0,0,1-.75-.75V4.61a.75.75,0,0,1,1.5,0V9.28A.755.755,0,0,1,18.73,10.03Z" fill="#2560fc"/>
          </g>
          <g id="Path_12154" data-name="Path 12154">
            <path id="Path_14024" data-name="Path 14024" d="M14.53,8.53a.729.729,0,0,1-.68-.44.751.751,0,0,1,.37-.99,3.075,3.075,0,0,0,1.62-1.74H14.41a.75.75,0,0,1,0-1.5h2.35a.756.756,0,0,1,.55.24.784.784,0,0,1,.2.57,4.564,4.564,0,0,1-2.67,3.79.7.7,0,0,1-.31.07Z" fill="#2560fc"/>
          </g>
          <g id="Line_46" data-name="Line 46">
            <path id="Path_14025" data-name="Path 14025" d="M19.7,6.59h-.97a.75.75,0,0,1,0-1.5h.97a.75.75,0,0,1,0,1.5Z" fill="#2560fc"/>
          </g>
          <g id="Path_12155" data-name="Path 12155">
            <path id="Path_14026" data-name="Path 14026" d="M4.7,20.49a.753.753,0,0,1-.29-.06A.763.763,0,0,1,4,19.45l2-4.83a.751.751,0,0,1,.69-.46h0a.741.741,0,0,1,.69.46L9.35,19.4a.751.751,0,0,1-1.39.57l-1.28-3.1L5.37,20.03a.746.746,0,0,1-.69.46Z" fill="#2560fc"/>
          </g>
          <g id="Line_47" data-name="Line 47">
            <path id="Path_14027" data-name="Path 14027" d="M8.33,19.6H5.06a.75.75,0,0,1,0-1.5H8.33a.75.75,0,0,1,0,1.5Z" fill="#2560fc"/>
          </g>
        </g>
      </g>
    </g>
  </g>
</svg>
