<svg id="dr_privacy" xmlns="http://www.w3.org/2000/svg" xmlns:xlink="http://www.w3.org/1999/xlink" width="24" height="24" viewBox="0 0 24 24">
  <defs>
    <clipPath id="clip-path">
      <rect id="Rectangle_1648" data-name="Rectangle 1648" width="24" height="24" fill="none"/>
    </clipPath>
  </defs>
  <g id="Group_2824" data-name="Group 2824" clip-path="url(#clip-path)">
    <g id="Mask_Group_166" data-name="Mask Group 166">
      <g id="Layer_1-12" data-name="Layer 1-12">
        <g id="Privacy_Policy" data-name="Privacy Policy">
          <g id="Path_12140" data-name="Path 12140">
            <path id="Path_14035" data-name="Path 14035" d="M11.99,23.91a.648.648,0,0,1-.19-.02A14.175,14.175,0,0,1,1.27,11.27V6.11A3.786,3.786,0,0,1,3.96,2.49L11.78.12a.785.785,0,0,1,.43,0l7.82,2.36A3.753,3.753,0,0,1,22.72,6.1v5.1A14.2,14.2,0,0,1,12.27,23.86a.706.706,0,0,1-.28.06ZM12,1.62,4.4,3.92A2.3,2.3,0,0,0,2.78,6.11v5.1a12.648,12.648,0,0,0,9.2,11.17,12.684,12.684,0,0,0,9.25-11.24V6.1a2.262,2.262,0,0,0-1.62-2.18L12,1.62Z" fill="#2560fc"/>
          </g>
          <g id="Line_40" data-name="Line 40">
            <path id="Path_14036" data-name="Path 14036" d="M12,13.17a.755.755,0,0,1-.75-.75V6.5a.75.75,0,0,1,1.5,0v5.92A.755.755,0,0,1,12,13.17Z" fill="#2560fc"/>
          </g>
          <g id="Line_41" data-name="Line 41">
            <path id="Path_14037" data-name="Path 14037" d="M12,17.33a.755.755,0,0,1-.75-.75v-.76a.75.75,0,1,1,1.5,0v.76A.755.755,0,0,1,12,17.33Z" fill="#2560fc"/>
          </g>
        </g>
      </g>
    </g>
  </g>
</svg>
