<svg id="dr_payment" xmlns="http://www.w3.org/2000/svg" xmlns:xlink="http://www.w3.org/1999/xlink" width="24" height="24" viewBox="0 0 24 24">
  <defs>
    <clipPath id="clip-path">
      <rect id="Rectangle_1647" data-name="Rectangle 1647" width="24" height="24" fill="none"/>
    </clipPath>
  </defs>
  <g id="Group_2823" data-name="Group 2823" clip-path="url(#clip-path)">
    <g id="Mask_Group_165" data-name="Mask Group 165">
      <g id="Layer_1-11" data-name="Layer 1-11">
        <g id="Payment">
          <g id="Path_13968" data-name="Path 13968">
            <path id="Path_14031" data-name="Path 14031" d="M20.19,23.91H2.32a2.215,2.215,0,0,1-1.58-.65,2.267,2.267,0,0,1-.66-1.58V8.28A2.215,2.215,0,0,1,.73,6.7a2.267,2.267,0,0,1,1.58-.66H20.17a2.215,2.215,0,0,1,1.58.65,2.267,2.267,0,0,1,.66,1.58v3.72a.75.75,0,0,1-1.5,0V8.27a.726.726,0,0,0-.22-.52.717.717,0,0,0-.52-.21H2.32a.726.726,0,0,0-.52.22.717.717,0,0,0-.21.52v13.4a.726.726,0,0,0,.22.52.717.717,0,0,0,.52.21H20.19a.741.741,0,0,0,.75-.74V17.95a.75.75,0,0,1,1.5,0v3.72a2.243,2.243,0,0,1-2.24,2.24Z" fill="#2560fc"/>
          </g>
          <g id="Path_13969" data-name="Path 13969">
            <path id="Path_14032" data-name="Path 14032" d="M22.41,18.71H18.69a3.73,3.73,0,0,1-3.73-3.73V14.9a3.733,3.733,0,0,1,3.73-3.65H22.4a1.5,1.5,0,0,1,1.5,1.5v4.46a1.5,1.5,0,0,1-1.5,1.5Zm-5.94-3.67a2.233,2.233,0,0,0,2.23,2.17h3.72V12.75H18.71a2.232,2.232,0,0,0-2.23,2.23v.06Z" fill="#2560fc"/>
          </g>
          <g id="Path_13970" data-name="Path 13970">
            <path id="Path_14033" data-name="Path 14033" d="M2.32,7.54a.724.724,0,0,1-.57-.27.748.748,0,0,1,.09-1.06L8.73.43A1.481,1.481,0,0,1,10.8.59a.55.55,0,0,1,.07.09l4.68,5.61a.753.753,0,0,1-1.16.96L9.65,1.58,2.8,7.37a.736.736,0,0,1-.48.18Z" fill="#2560fc"/>
          </g>
          <g id="Path_13971" data-name="Path 13971">
            <path id="Path_14034" data-name="Path 14034" d="M20.18,7.56a.759.759,0,0,1-.58-.27L14.86,1.6,12.39,3.69a.752.752,0,1,1-.97-1.15L13.94.45A1.467,1.467,0,0,1,16,.62c.02.03.05.06.07.09l4.69,5.62a.749.749,0,0,1-.1,1.06A.725.725,0,0,1,20.18,7.56Z" fill="#2560fc"/>
          </g>
        </g>
      </g>
    </g>
  </g>
</svg>
