<svg id="dr_rateus" xmlns="http://www.w3.org/2000/svg" xmlns:xlink="http://www.w3.org/1999/xlink" width="24" height="24" viewBox="0 0 24 24">
  <defs>
    <clipPath id="clip-path">
      <rect id="Rectangle_1649" data-name="Rectangle 1649" width="24" height="24" fill="none"/>
    </clipPath>
  </defs>
  <g id="Group_2825" data-name="Group 2825" clip-path="url(#clip-path)">
    <g id="Mask_Group_167" data-name="Mask Group 167">
      <g id="Layer_1-13" data-name="Layer 1-13">
        <g id="Rate_App" data-name="Rate App">
          <g id="dr_rateus-2" data-name="dr rateus">
            <path id="Path_14038" data-name="Path 14038" d="M18.18,23.36a1.749,1.749,0,0,1-.89-.24l-5.3-2.81L6.68,23.12a1.831,1.831,0,0,1-2.48-.73A1.888,1.888,0,0,1,4,21.18l.92-5.88L.68,11.14A1.921,1.921,0,0,1,.09,9.75a1.956,1.956,0,0,1,.56-1.4,2.029,2.029,0,0,1,1.12-.58l5.89-.9,2.89-5.36a1.624,1.624,0,0,1,.97-.79,1.607,1.607,0,0,1,1.25.13c.01,0,.03.02.04.02a1.624,1.624,0,0,1,.64.66l2.9,5.34,5.88.9a1.98,1.98,0,0,1,1.1,3.37L19.09,15.3l.92,5.9a1.847,1.847,0,0,1-1.5,2.11,1.628,1.628,0,0,1-.31.03Zm-6.2-4.65a.919.919,0,0,1,.28.05h.02l5.73,3.04a.3.3,0,0,0,.21.05.35.35,0,0,0,.29-.4l-.98-6.29a.723.723,0,0,1,.22-.65l4.51-4.43a.533.533,0,0,0,.14-.28.487.487,0,0,0-.41-.54L15.74,8.3a.8.8,0,0,1-.55-.38L12.1,2.23a.631.631,0,0,1-.1-.07.162.162,0,0,0-.14.07L8.79,7.92a.749.749,0,0,1-.55.39l-6.25.96a.551.551,0,0,0-.28.15.46.46,0,0,0-.13.33.453.453,0,0,0,.14.33l4.52,4.43a.781.781,0,0,1,.22.65l-.98,6.28a.344.344,0,0,0,.03.23.33.33,0,0,0,.45.13l5.67-3.01a.73.73,0,0,1,.35-.09Z" fill="#2560fc"/>
          </g>
        </g>
      </g>
    </g>
  </g>
</svg>
